<svg xmlns="http://www.w3.org/2000/svg" viewBox="0 0 320 190" fill="none"><rect x="34" y="22" width="245" height="140" rx="15" fill="#fff"/><rect x="50" y="39" width="65" height="105" rx="9" fill="#f6f3ff"/><circle cx="82" cy="58" r="12" fill="#c5b5fa"/><rect x="64" y="78" width="37" height="5" rx="2.5" fill="#d4cafa"/><rect x="64" y="89" width="30" height="5" rx="2.5" fill="#e0daf5"/><rect x="64" y="109" width="39" height="23" rx="6" fill="#ebe6fa"/><rect x="127" y="42" width="134" height="36" rx="11" fill="#eee9ff"/><circle cx="145" cy="60" r="9" fill="#8165e7"/><rect x="161" y="54" width="83" height="5" rx="2.5" fill="#a99adf"/><rect x="161" y="63" width="61" height="4" rx="2" fill="#c7bee8"/><rect x="153" y="88" width="109" height="34" rx="11" fill="#e3f4eb"/><circle cx="171" cy="105" r="8" fill="#61b18c"/><rect x="186" y="99" width="61" height="4" rx="2" fill="#8bc6a8"/><rect x="186" y="107" width="48" height="4" rx="2" fill="#bddfca"/><circle cx="272" cy="41" r="22" fill="#f6ad92"/><path d="M254 47c3-10 9-15 18-15s15 5 18 15" fill="#ee896f"/><circle cx="22" cy="152" r="8" fill="#f1bd6c"/><path d="m285 145 8 8 15-19" stroke="#765be4" stroke-width="5" stroke-linecap="round" stroke-linejoin="round"/></svg>
